<svg width="244" height="133" viewBox="0 0 244 133" fill="none" xmlns="http://www.w3.org/2000/svg">
<mask id="mask0_1737_4084" style="mask-type:alpha" maskUnits="userSpaceOnUse" x="0" y="0" width="244" height="133">
<rect width="244" height="133" fill="#FFEBF9"/>
</mask>
<g mask="url(#mask0_1737_4084)">
<path d="M115.609 167.671C128.44 157.035 134.541 164.395 147.372 153.758C160.203 143.121 154.102 135.761 166.93 125.128C179.757 114.494 185.862 121.851 198.693 111.215C211.525 100.578 205.424 93.2179 218.255 82.5813C231.086 71.9447 237.187 79.3047 250.022 68.665C262.857 58.0253 256.752 50.6684 269.583 40.0318" stroke="#FFD9F4" stroke-miterlimit="10"/>
<path d="M124 180.639C136.831 170.003 142.932 177.363 155.764 166.726C168.595 156.089 162.494 148.73 175.321 138.096C188.149 127.462 194.254 134.819 207.085 124.183C219.916 113.546 213.815 106.186 226.646 95.5495C239.477 84.9129 245.578 92.2729 258.413 81.6332C271.248 70.9935 265.143 63.6366 277.975 53" stroke="#FFD9F4" stroke-miterlimit="10"/>
</g>
</svg>
